<svg width="33" height="33" viewBox="0 0 33 33" fill="none" xmlns="http://www.w3.org/2000/svg">
<path d="M8.9497 0.840461C6.03698 2.6641 4.06805 5.88323 4.06805 9.56223C4.06805 13.2412 6.03698 16.4604 8.99852 18.284C4.00296 18.284 0 14.383 0 9.56223C0 7.24907 0.942913 5.03066 2.62131 3.39501C4.2997 1.75936 6.57609 0.840461 8.9497 0.840461V0.840461ZM27.7766 3.21913L30.1035 5.48678L4.76775 30.1773L2.44083 27.9097L27.7766 3.21913ZM17.7204 7.07256L15.3121 5.59779L12.9689 7.18356L13.6524 4.48775L11.3905 2.80682L14.2382 2.61653L15.182 0L16.2722 2.58481L19.0873 2.63239L16.8905 4.42432L17.7204 7.07256ZM12.3506 12.7972L10.463 11.6396L8.64053 12.8765L9.19379 10.7833L7.42012 9.46708L9.63314 9.32436L10.3654 7.27871L11.1953 9.29265L13.4083 9.34022L11.6997 10.7198L12.3506 12.7972V12.7972ZM27.6627 19.0769C27.6627 21.39 26.7198 23.6085 25.0414 25.2441C23.363 26.8798 21.0866 27.7987 18.713 27.7987C16.7278 27.7987 14.8891 27.1643 13.4083 26.1019L25.9216 13.9073C27.0118 15.3503 27.6627 17.1422 27.6627 19.0769V19.0769ZM20.503 29.5113L25.0104 27.6877L24.6198 33L20.503 29.5113V29.5113ZM27.5488 25.2297L29.4201 20.8371L33 24.865L27.5488 25.2297V25.2297ZM29.4201 17.3642L27.5651 12.9558L33 13.3364L29.4201 17.3642ZM12.4157 27.6877L16.9231 29.5113L12.8062 32.9841L12.4157 27.6877Z" />
</svg>
